<?xml version="1.0" encoding="UTF-8" standalone="no"?>
<svg
   xmlns:dc="http://purl.org/dc/elements/1.1/"
   xmlns:cc="http://creativecommons.org/ns#"
   xmlns:rdf="http://www.w3.org/1999/02/22-rdf-syntax-ns#"
   xmlns:svg="http://www.w3.org/2000/svg"
   xmlns="http://www.w3.org/2000/svg"
   viewBox="0 0 2560 1440"
   height="1440"
   width="2560"
   xml:space="preserve"
   id="svg2"
   version="1.1"><metadata
     id="metadata8"><rdf:RDF><cc:Work
         rdf:about=""><dc:format>image/svg+xml</dc:format><dc:type
           rdf:resource="http://purl.org/dc/dcmitype/StillImage" /></cc:Work></rdf:RDF></metadata><defs
     id="defs6"><clipPath
       id="clipPath18"
       clipPathUnits="userSpaceOnUse"><path
         id="path16"
         d="M 0,1080 H 1920 V 0 H 0 Z" /></clipPath><clipPath
       id="clipPath40"
       clipPathUnits="userSpaceOnUse"><path
         id="path38"
         d="M 0,1080 H 1920 V 0 H 0 Z" /></clipPath></defs><g
     transform="matrix(1.3333333,0,0,-1.3333333,0,1440)"
     id="g10"><g
       id="g12"><g
         clip-path="url(#clipPath18)"
         id="g14"><path
           id="path20"
           style="fill:none;stroke:#000000;stroke-width:1;stroke-linecap:butt;stroke-linejoin:miter;stroke-miterlimit:10;stroke-dasharray:none;stroke-opacity:1"
           d="M 1079.5,0.5 H -0.5 v 1080 h 1080 z" /></g></g><g
       transform="translate(250.0068,319.0039)"
       id="g22"><path
         id="path24"
         style="fill:#ffffff;fill-opacity:1;fill-rule:nonzero;stroke:none"
         d="M 0,0 H 142.139 L 279.863,476.075 104.176,295.146 Z" /></g><g
       transform="translate(250.0068,319.0039)"
       id="g26"><path
         id="path28"
         style="fill:none;stroke:#0000ff;stroke-width:20;stroke-linecap:round;stroke-linejoin:miter;stroke-miterlimit:10;stroke-dasharray:none;stroke-opacity:1"
         d="M 0,0 H 142.139 L 279.863,476.075 104.176,295.146 Z" /></g><g
       transform="translate(570.5903,741.9863)"
       id="g30"><path
         id="path32"
         style="fill:#0000ff;fill-opacity:1;fill-rule:nonzero;stroke:none"
         d="m 0,0 -56.269,-222.935 180.653,-212.762 -270.979,-76.289 h 128.086 276.16" /></g><g
       id="g34"><g
         clip-path="url(#clipPath40)"
         id="g36"><g
           transform="translate(501.9692,1007.6372)"
           id="g42"><path
             id="path44"
             style="fill:#0000ff;fill-opacity:1;fill-rule:nonzero;stroke:none"
             d="m 0,0 c -28.837,-0.003 -59.602,-21.859 -75.731,-56.803 -20.437,-44.274 -9.65,-92.791 24.093,-108.366 7.111,-3.283 14.668,-4.84 22.369,-4.84 28.837,0 59.602,21.86 75.731,56.803 20.437,44.274 9.65,92.791 -24.092,108.367 C 15.258,-1.557 7.701,0.001 0,0 m 0.006,0 v -20 c 4.968,0 9.672,-1.009 13.981,-2.998 10.521,-4.856 18.058,-15.37 21.223,-29.603 3.605,-16.217 1.153,-34.764 -6.906,-52.223 -6.409,-13.884 -15.685,-25.572 -26.825,-33.8 -9.939,-7.341 -20.859,-11.385 -30.748,-11.385 -4.972,0 -9.678,1.009 -13.987,2.998 -10.521,4.857 -18.058,15.37 -21.223,29.603 -3.605,16.218 -1.152,34.764 6.907,52.223 6.408,13.883 15.683,25.571 26.823,33.799 9.94,7.341 20.861,11.385 30.751,11.386 L 0.006,0" /></g><g
           transform="translate(919.8296,552.6812)"
           id="g46"><path
             id="path48"
             style="fill:none;stroke:#0000ff;stroke-width:30;stroke-linecap:round;stroke-linejoin:miter;stroke-miterlimit:10;stroke-dasharray:none;stroke-opacity:1"
             d="m 0,0 c 70.382,-50.68 112.662,-115.653 112.662,-186.494 0,-161.923 -220.889,-293.187 -493.367,-293.187 -272.479,0 -493.366,131.264 -493.366,293.187 0,76.282 49.023,145.76 129.368,197.915" /></g></g></g></g></svg>